<svg width="115" height="50" viewBox="0 0 115 50" fill="none" xmlns="http://www.w3.org/2000/svg">
<path d="M0.12 39V5.736H19.944L19.128 11.352H7.992V20.184H17.688V25.8H7.992V39H0.12ZM29.5444 13.512V39H21.9604V13.512H29.5444ZM25.7044 0.0719976C27.0164 0.0719976 28.0884 0.487998 28.9204 1.32C29.7844 2.12 30.2164 3.144 30.2164 4.392C30.2164 5.64 29.7844 6.68 28.9204 7.512C28.0884 8.312 27.0164 8.712 25.7044 8.712C24.3924 8.712 23.3204 8.312 22.4884 7.512C21.6564 6.68 21.2404 5.64 21.2404 4.392C21.2404 3.144 21.6564 2.12 22.4884 1.32C23.3204 0.487998 24.3924 0.0719976 25.7044 0.0719976ZM42.2753 39.816C40.0673 39.816 38.3393 39.192 37.0913 37.944C35.8753 36.664 35.2673 34.856 35.2673 32.52V3.384L42.8513 2.568V32.232C42.8513 33.288 43.2833 33.816 44.1473 33.816C44.5953 33.816 45.0113 33.736 45.3953 33.576L46.8833 38.952C45.5073 39.528 43.9713 39.816 42.2753 39.816ZM57.3413 13.512V39H49.7573V13.512H57.3413ZM53.5013 0.0719976C54.8133 0.0719976 55.8853 0.487998 56.7173 1.32C57.5813 2.12 58.0133 3.144 58.0133 4.392C58.0133 5.64 57.5813 6.68 56.7173 7.512C55.8853 8.312 54.8133 8.712 53.5013 8.712C52.1893 8.712 51.1173 8.312 50.2853 7.512C49.4533 6.68 49.0373 5.64 49.0373 4.392C49.0373 3.144 49.4533 2.12 50.2853 1.32C51.1173 0.487998 52.1893 0.0719976 53.5013 0.0719976ZM77.7041 12.696C80.9041 12.696 83.2881 13.88 84.8561 16.248C86.4241 18.616 87.2081 21.928 87.2081 26.184C87.2081 28.808 86.7921 31.16 85.9601 33.24C85.1601 35.288 83.9921 36.904 82.4561 38.088C80.9201 39.24 79.1281 39.816 77.0801 39.816C74.5201 39.816 72.4561 38.936 70.8881 37.176V48.84L63.3041 49.656V13.512H69.9761L70.3601 16.344C71.3521 15.096 72.4881 14.184 73.7681 13.608C75.0481 13 76.3601 12.696 77.7041 12.696ZM74.7761 34.248C77.8161 34.248 79.3361 31.592 79.3361 26.28C79.3361 23.272 79.0001 21.192 78.3281 20.04C77.6561 18.856 76.6481 18.264 75.3041 18.264C74.4401 18.264 73.6241 18.52 72.8561 19.032C72.1201 19.544 71.4641 20.28 70.8881 21.24V31.992C71.9121 33.496 73.2081 34.248 74.7761 34.248ZM114.169 25.752C114.169 26.808 114.121 27.72 114.025 28.488H98.2328C98.4888 30.632 99.0968 32.136 100.057 33C101.017 33.864 102.345 34.296 104.041 34.296C105.065 34.296 106.057 34.12 107.017 33.768C107.977 33.384 109.017 32.808 110.137 32.04L113.257 36.264C110.281 38.632 106.969 39.816 103.321 39.816C99.1928 39.816 96.0248 38.6 93.8168 36.168C91.6088 33.736 90.5048 30.472 90.5048 26.376C90.5048 23.784 90.9688 21.464 91.8968 19.416C92.8248 17.336 94.1848 15.704 95.9768 14.52C97.7688 13.304 99.9128 12.696 102.409 12.696C106.089 12.696 108.969 13.848 111.049 16.152C113.129 18.456 114.169 21.656 114.169 25.752ZM106.729 23.592C106.665 19.688 105.289 17.736 102.601 17.736C101.289 17.736 100.265 18.216 99.5288 19.176C98.8248 20.136 98.3928 21.72 98.2328 23.928H106.729V23.592Z" fill="#141414"/>
</svg>
